<svg xmlns="http://www.w3.org/2000/svg" version="1.1" xmlns:xlink="http://www.w3.org/1999/xlink" xmlns:svgjs="http://svgjs.dev/svgjs" viewBox="0 0 800 800"><defs><linearGradient x1="50%" y1="0%" x2="50%" y2="100%" id="ffflurry-grad" gradientTransform="rotate(270)"><stop stop-color="hsl(238, 82%, 13%)" stop-opacity="1" offset="0%"></stop><stop stop-color="hsl(230, 55%, 50%)" stop-opacity="1" offset="45%"></stop><stop stop-color="hsl(230, 55%, 70%)" stop-opacity="1" offset="100%"></stop></linearGradient></defs><rect width="100%" height="100%" fill="hsl(238, 82%, 13%)"></rect><g fill="url(#ffflurry-grad)"><rect width="109" height="1" x="502.5" y="311.5" rx="0.5" transform="rotate(30, 557, 312)" opacity="0.85"></rect><rect width="108" height="1" x="220" y="207.5" rx="0.5" transform="rotate(30, 274, 208)" opacity="0.52"></rect><rect width="39" height="1" x="758.5" y="506.5" rx="0.5" transform="rotate(30, 778, 507)" opacity="0.17"></rect><rect width="110" height="1" x="338" y="69.5" rx="0.5" transform="rotate(30, 393, 70)" opacity="0.16"></rect><rect width="101" height="1" x="315.5" y="629.5" rx="0.5" transform="rotate(30, 366, 630)" opacity="0.68"></rect><rect width="101" height="1" x="695.5" y="637.5" rx="0.5" transform="rotate(30, 746, 638)" opacity="0.92"></rect><rect width="74" height="1" x="611" y="385.5" rx="0.5" transform="rotate(30, 648, 386)" opacity="0.92"></rect><rect width="144" height="1" x="183" y="402.5" rx="0.5" transform="rotate(30, 255, 403)" opacity="0.46"></rect><rect width="105" height="1" x="359.5" y="498.5" rx="0.5" transform="rotate(30, 412, 499)" opacity="0.77"></rect><rect width="172" height="1" x="13" y="690.5" rx="0.5" transform="rotate(30, 99, 691)" opacity="0.43"></rect><rect width="43" height="1" x="622.5" y="647.5" rx="0.5" transform="rotate(30, 644, 648)" opacity="0.95"></rect><rect width="48" height="1" x="467" y="708.5" rx="0.5" transform="rotate(30, 491, 709)" opacity="0.13"></rect><rect width="66" height="1" x="707" y="433.5" rx="0.5" transform="rotate(30, 740, 434)" opacity="0.47"></rect><rect width="57" height="1" x="312.5" y="752.5" rx="0.5" transform="rotate(30, 341, 753)" opacity="0.24"></rect><rect width="44" height="1" x="554" y="700.5" rx="0.5" transform="rotate(30, 576, 701)" opacity="0.77"></rect><rect width="96" height="1" x="160" y="572.5" rx="0.5" transform="rotate(30, 208, 573)" opacity="0.26"></rect><rect width="170" height="1" x="574" y="109.5" rx="0.5" transform="rotate(30, 659, 110)" opacity="0.65"></rect><rect width="101" height="1" x="365.5" y="377.5" rx="0.5" transform="rotate(30, 416, 378)" opacity="0.86"></rect><rect width="90" height="1" x="670" y="751.5" rx="0.5" transform="rotate(30, 715, 752)" opacity="0.11"></rect><rect width="144" height="1" x="11" y="386.5" rx="0.5" transform="rotate(30, 83, 387)" opacity="0.44"></rect><rect width="72" height="1" x="662" y="534.5" rx="0.5" transform="rotate(30, 698, 535)" opacity="0.99"></rect><rect width="107" height="1" x="54.5" y="120.5" rx="0.5" transform="rotate(30, 108, 121)" opacity="0.12"></rect><rect width="96" height="1" x="510" y="522.5" rx="0.5" transform="rotate(30, 558, 523)" opacity="0.63"></rect><rect width="87" height="1" x="697.5" y="287.5" rx="0.5" transform="rotate(30, 741, 288)" opacity="0.35"></rect><rect width="80" height="1" x="389" y="242.5" rx="0.5" transform="rotate(30, 429, 243)" opacity="0.71"></rect></g></svg>